<svg id="katman_1" data-name="katman 1" xmlns="http://www.w3.org/2000/svg" xmlns:xlink="http://www.w3.org/1999/xlink" viewBox="0 0 1366 768"><defs><style>.cls-1{opacity:0.1;}.cls-2{fill:none;}.cls-3,.cls-4{stroke:#000;stroke-miterlimit:10;stroke-width:0.5px;}.cls-4{fill-rule:evenodd;}.cls-5{opacity:0.55;fill:url(#Yeni_Desenli_Renk_Örneği_2);}</style><pattern id="Yeni_Desenli_Renk_Örneği_2" data-name="Yeni Desenli Renk Örneği 2" width="74.21" height="75" patternUnits="userSpaceOnUse" viewBox="0 0 74.21 75"><g class="cls-1"><rect class="cls-2" width="74.21" height="75"/><path d="M43.64,32.33,43.12,34a.51.51,0,0,1-.25.29.46.46,0,0,1-.23.06l-.16,0-.38-.12-3.67,8.22a.5.5,0,0,1-.46.29.39.39,0,0,1-.15,0l-5.23-1.7a.5.5,0,0,1-.34-.58l1.86-8.81-.38-.12a.48.48,0,0,1-.29-.25.5.5,0,0,1,0-.38l.53-1.63a.5.5,0,0,1,.63-.32l8.75,2.85A.49.49,0,0,1,43.64,32.33Zm-2.49,1.51-6.08-2-1.75,8.27,4.38,1.42Zm1.39-1.35L34.73,30l-.22.67,7.81,2.54Z"/><path d="M15.09,24.26l-.39,1.18a.36.36,0,0,1-.18.22.45.45,0,0,1-.16,0h-.11L14,25.59l-2.67,6a.36.36,0,0,1-.33.21.2.2,0,0,1-.11,0L7.05,30.52a.37.37,0,0,1-.24-.42l1.35-6.4-.28-.09a.37.37,0,0,1-.21-.18.39.39,0,0,1,0-.28L8,22a.35.35,0,0,1,.45-.23l6.36,2.06A.38.38,0,0,1,15.09,24.26Zm-1.82,1.1L8.86,23.93l-1.27,6,3.18,1Zm1-1L8.61,22.54,8.45,23l5.67,1.84Z"/><path d="M32.94,18.9a.5.5,0,0,1-.35.57L27.3,21l-.14,0a.5.5,0,0,1-.46-.31l-.86-2.09-.09,0a.32.32,0,0,1-.14,0,.5.5,0,0,1-.46-.31l-1.51-3.73a.5.5,0,0,1,0-.4.54.54,0,0,1,.27-.25l-.65-1.58-.38.11a.39.39,0,0,1-.15,0,.53.53,0,0,1-.24-.06.52.52,0,0,1-.24-.3l-.48-1.64a.51.51,0,0,1,.34-.62L31,7.33a.51.51,0,0,1,.62.34l.48,1.64a.5.5,0,0,1,0,.38.45.45,0,0,1-.3.24l-.38.12.3,1.68a.57.57,0,0,1,.36.06.54.54,0,0,1,.23.34L33,16.08a.49.49,0,0,1-.35.57l-.09,0Zm-9.86-7.48L31,9.11l-.2-.68-7.88,2.31Zm6.07-.73-4.91,1.44.65,1.57L30.67,12l-.3-1.68Zm-3.24,6.89,6-1.76-.55-3-6.57,1.93Zm6,1.06L31.57,17l-4.77,1.4.65,1.57Z"/><path d="M23.93,36.62a3.75,3.75,0,0,1-3.21,2.87,2.26,2.26,0,0,1-.69-.1c-1.51-.49-2.21-2.51-1.57-4.52A3.75,3.75,0,0,1,21.68,32a2.24,2.24,0,0,1,.68.1C23.87,32.59,24.58,34.61,23.93,36.62Zm-4,1.56L21.55,33a2.91,2.91,0,0,0-2.14,2.16A2.94,2.94,0,0,0,19.89,38.18Zm2.61-4.87-1.66,5.17A2.9,2.9,0,0,0,23,36.32,2.94,2.94,0,0,0,22.5,33.31Z"/><path d="M24.93,68.62a3.75,3.75,0,0,1-3.21,2.87,2.26,2.26,0,0,1-.69-.1c-1.51-.49-2.21-2.51-1.57-4.52A3.75,3.75,0,0,1,22.68,64a2.24,2.24,0,0,1,.68.1C24.87,64.59,25.58,66.61,24.93,68.62Zm-4,1.56L22.55,65a2.91,2.91,0,0,0-2.14,2.16A2.94,2.94,0,0,0,20.89,70.18Zm2.61-4.87-1.66,5.17A2.9,2.9,0,0,0,24,68.32,2.94,2.94,0,0,0,23.5,65.31Z"/><path d="M67.93,25.62a3.75,3.75,0,0,1-3.21,2.87,2.26,2.26,0,0,1-.69-.1c-1.51-.49-2.21-2.51-1.57-4.52A3.75,3.75,0,0,1,65.68,21a2.24,2.24,0,0,1,.68.1C67.87,21.59,68.58,23.61,67.93,25.62Zm-4,1.56L65.55,22a2.91,2.91,0,0,0-2.14,2.16A2.94,2.94,0,0,0,63.89,27.18Zm2.61-4.87-1.66,5.17A2.9,2.9,0,0,0,67,25.32,2.94,2.94,0,0,0,66.5,22.31Z"/><path d="M62.35,51.44A1.83,1.83,0,0,1,60.77,53a3,3,0,0,1-.66.06,6.49,6.49,0,0,1-1-.08,4.61,4.61,0,0,1-3.4,2.29h-.14L53.38,55l-.13,0a4.6,4.6,0,0,1-2.62-4.86L51,47.79a.54.54,0,0,1,.2-.33.49.49,0,0,1,.37-.09l8.09,1.23a.51.51,0,0,1,.42.43A2.93,2.93,0,0,1,62,50,1.92,1.92,0,0,1,62.35,51.44Zm-3.64-.15L59,49.52l-7.09-1.08-.27,1.77a3.6,3.6,0,0,0,2,3.77l2.1.32A3.6,3.6,0,0,0,58.71,51.29Zm2.52-.72A2.13,2.13,0,0,0,59.92,50l-.22,1.42a6,6,0,0,1-.13.61,3.42,3.42,0,0,0,1,0,.84.84,0,0,0,.78-.76A1,1,0,0,0,61.23,50.57Z"/><path d="M54.24,46a.51.51,0,0,0-.11.7.49.49,0,0,0,.41.21.53.53,0,0,0,.29-.1,2.63,2.63,0,0,0,.56-3.68,1.64,1.64,0,0,1,.35-2.29.51.51,0,0,0,.11-.7.5.5,0,0,0-.7-.1,2.61,2.61,0,0,0-.56,3.68A1.63,1.63,0,0,1,54.24,46Z"/><path d="M57.22,43.4a.5.5,0,0,0-.11.7.49.49,0,0,0,.4.21.54.54,0,0,0,.3-.1,2.64,2.64,0,0,0,.56-3.68,1.62,1.62,0,0,1-.3-1.22,1.66,1.66,0,0,1,.65-1.07.5.5,0,0,0-.6-.8,2.64,2.64,0,0,0-.56,3.68,1.64,1.64,0,0,1-.34,2.28Z"/><path d="M13.3,11.78a.87.87,0,0,1-.76.77,1.66,1.66,0,0,1-.32,0,3,3,0,0,1-.45,0,2.23,2.23,0,0,1-1.64,1.1h-.06L9,13.48l-.07,0a2.23,2.23,0,0,1-1.26-2.34L7.83,10a.26.26,0,0,1,.09-.16.24.24,0,0,1,.18,0l3.89.59a.22.22,0,0,1,.2.2,1.41,1.41,0,0,1,1,.46A.92.92,0,0,1,13.3,11.78Zm-1.75-.07.13-.85-3.41-.52-.13.85A1.75,1.75,0,0,0,9.09,13l1,.15A1.72,1.72,0,0,0,11.55,11.71Zm1.22-.34a1,1,0,0,0-.64-.27l-.1.68c0,.1,0,.2-.07.3a1.61,1.61,0,0,0,.49,0,.41.41,0,0,0,.37-.37A.41.41,0,0,0,12.77,11.37Z"/><path d="M9.4,9.17a.24.24,0,0,0,.14.43.28.28,0,0,0,.15,0A1.28,1.28,0,0,0,10,7.78a.76.76,0,0,1-.15-.58.74.74,0,0,1,.31-.51.24.24,0,0,0,.05-.34.23.23,0,0,0-.33,0,1.27,1.27,0,0,0-.27,1.77A.79.79,0,0,1,9.4,9.17Z"/><path d="M10.83,7.92a.24.24,0,0,0-.05.33.23.23,0,0,0,.2.1.23.23,0,0,0,.14,0,1.28,1.28,0,0,0,.27-1.78A.76.76,0,0,1,11.24,6a.83.83,0,0,1,.31-.52.24.24,0,0,0,.06-.33.24.24,0,0,0-.34,0,1.25,1.25,0,0,0-.5.83,1.26,1.26,0,0,0,.23.94.76.76,0,0,1,.14.58A.79.79,0,0,1,10.83,7.92Z"/><path d="M56.2,15.06l-.44,1.65a.49.49,0,0,1-.48.37h-.13L54.76,17l-3.24,8.4a.51.51,0,0,1-.47.32l-.13,0L45.6,24.23a.49.49,0,0,1-.36-.56l1.4-8.89-.38-.1a.51.51,0,0,1-.36-.62l.45-1.65a.5.5,0,0,1,.61-.35l.41.11a4.3,4.3,0,0,1,2-2.19l.85-5.55a.5.5,0,0,1,1,.15l-.77,5a3.75,3.75,0,0,1,.82-.09,4.11,4.11,0,0,1,1.1.15,4.21,4.21,0,0,1,3.06,4.66l.42.11a.5.5,0,0,1,.35.61Zm-7.85-2.63,6.11,1.65a3.22,3.22,0,0,0-2.35-3.44,3.46,3.46,0,0,0-.84-.11,3.11,3.11,0,0,0-1.25.26h0A3.18,3.18,0,0,0,48.35,12.43Zm5.44,4.27L47.61,15,46.3,23.38l4.44,1.2Zm1.32-1.41-7.93-2.13-.18.68L54.92,16Z"/><path d="M47.86,18.55a2.06,2.06,0,0,1,2-1.52,2.33,2.33,0,0,1,.53.07,2,2,0,0,1-.53,4h0a2.33,2.33,0,0,1-.53-.07A2.06,2.06,0,0,1,47.86,18.55Zm1.71,1.54a.84.84,0,0,0,.27,0,1,1,0,0,0,.27-2.06,1.26,1.26,0,0,0-.27,0,1,1,0,0,0-.27,2.06Z"/><path d="M35,64.77l3-7a3.7,3.7,0,0,0,3.09-2.21,3.69,3.69,0,0,0-1.92-4.84,4.13,4.13,0,0,0-.45-.17,3.69,3.69,0,0,0-3.9,5.84l-3,7a1.75,1.75,0,0,0,.9,2.29l.21.07h0A1.75,1.75,0,0,0,35,64.77Zm3.78-13.1a2.68,2.68,0,0,1-1.09,5.15.51.51,0,0,0-.47.3l-3.14,7.25a.75.75,0,0,1-.88.42l-.09,0a.73.73,0,0,1-.38-1l3.14-7.25a.51.51,0,0,0-.1-.55,2.69,2.69,0,0,1,2.68-4.44Z"/><path d="M67.66,66.85l1.64-3.78A2,2,0,0,0,71,60.33a1.94,1.94,0,0,0-1.06-1.1l-.25-.09a2,2,0,0,0-2.12,3.17L65.93,66.1a.94.94,0,0,0,.49,1.24l.12,0h0A.94.94,0,0,0,67.66,66.85Zm2.06-7.12a1.43,1.43,0,0,1,.78.8,1.45,1.45,0,0,1,0,1.12,1.47,1.47,0,0,1-1.35.88.29.29,0,0,0-.26.16l-1.71,3.94a.4.4,0,0,1-.47.23l0,0a.4.4,0,0,1-.21-.53l1.71-3.94a.28.28,0,0,0,0-.29,1.46,1.46,0,0,1,1.45-2.42Z"/><path class="cls-3" d="M48.19,63.63h0a.15.15,0,0,0-.15.13h0c0,.23-.07.58-.13,1-.26,1.92-.72,5.29.22,5.94a.17.17,0,0,0,.1,0h5.54a.11.11,0,0,0,.08,0h0c1-.63.5-4,.23-5.95-.06-.41-.1-.76-.12-1a.15.15,0,0,0-.15-.14H48.19Zm5.49.29c0,.23.07.53.11.88.26,1.84.7,5-.06,5.64H48.27c-.76-.59-.32-3.8-.07-5.64,0-.35.09-.65.12-.88h5.36Z"/><path class="cls-3" d="M49.23,64.44c-.21-1.31.12-3,1.77-3a.15.15,0,0,0-.13.15.15.15,0,0,0,.13.14h0c-1.93,0-1.48,2.64-1.48,2.65a.14.14,0,0,1-.12.16.15.15,0,0,1-.17-.12Zm1.77-3h0a.15.15,0,0,0,0,.29h0c1.93,0,1.48,2.64,1.48,2.65a.14.14,0,0,0,.12.16.14.14,0,0,0,.16-.12s.5-2.95-1.73-3h0Z"/><circle class="cls-3" cx="49.37" cy="64.47" r="0.2"/><path class="cls-4" d="M52.62,64.27a.2.2,0,1,1-.2.2A.2.2,0,0,1,52.62,64.27Z"/><path class="cls-3" d="M65,8h0a.08.08,0,0,0-.11,0h0c-.07.12-.18.31-.32.53-.62,1-1.7,2.79-1.34,3.39a.12.12,0,0,0,0,0l1.56.68,1.56.68h0c.7-.11,1.27-2.14,1.59-3.29l.17-.58a.09.09,0,0,0,0-.12L66.6,8.71,65,8Zm3,1.51-.15.52c-.31,1.1-.85,3-1.42,3.16l-1.54-.67-1.53-.67c-.29-.52.75-2.22,1.34-3.19.12-.19.21-.34.28-.47l1.51.66Z"/><path class="cls-3" d="M65.41,8.73c.2-.79.8-1.65,1.73-1.24a.09.09,0,0,0-.11,0,.08.08,0,0,0,0,.11h0C66,7.18,65.58,8.77,65.58,8.78a.09.09,0,1,1-.17,0Zm1.73-1.24h0c-.1,0-.17.11-.06.16h0c1.08.47.18,1.85.18,1.85a.1.1,0,0,0,0,.13.1.1,0,0,0,.12,0s1-1.54-.25-2.1h0Z"/><circle class="cls-3" cx="65.48" cy="8.78" r="0.12"/><path class="cls-4" d="M67.36,9.47a.12.12,0,1,1-.16.06A.12.12,0,0,1,67.36,9.47Z"/><path class="cls-3" d="M18.28,54.3a4.87,4.87,0,0,1-4.87,4.87A4.87,4.87,0,0,1,10,57.74a4.89,4.89,0,0,1,0-6.89,4.87,4.87,0,0,1,8.32,3.45Zm-.21,0a4.66,4.66,0,1,0-1.36,3.29A4.63,4.63,0,0,0,18.07,54.3Zm-1,0a3.66,3.66,0,1,1-3.66-3.66A3.66,3.66,0,0,1,17.07,54.3Zm-.21,0a3.45,3.45,0,1,0-3.45,3.45A3.46,3.46,0,0,0,16.86,54.3Z"/><path class="cls-3" d="M20.64,55.67v3.09a.41.41,0,0,1-.41.41.42.42,0,0,1-.42-.41v-3h-.23a.11.11,0,0,1-.11-.11V52a3.85,3.85,0,0,1,1-2.58.11.11,0,0,1,.11,0,.1.1,0,0,1,.07.1Zm-.21.11H20v3a.2.2,0,0,0,.4,0Zm0-6A3.65,3.65,0,0,0,19.69,52v3.53h.74Z"/><path class="cls-3" d="M8.07,49.53v2A.48.48,0,0,1,7.7,52v6.74a.42.42,0,0,1-.42.41.41.41,0,0,1-.41-.41V52a.48.48,0,0,1-.37-.46v-2a.1.1,0,0,1,.1-.11.11.11,0,0,1,.11.11v2a.25.25,0,0,0,.25.25h.22V49.53a.1.1,0,0,1,.1-.11.11.11,0,0,1,.11.11v2.28H7.6a.26.26,0,0,0,.26-.25v-2a.1.1,0,0,1,.1-.11A.11.11,0,0,1,8.07,49.53ZM7.48,52h-.4v6.73a.2.2,0,1,0,.4,0Z"/></g></pattern></defs><rect class="cls-5" width="1366" height="768"/></svg>