<svg id="Logo" xmlns="http://www.w3.org/2000/svg" xmlns:xlink="http://www.w3.org/1999/xlink" width="117.037" height="50" viewBox="0 0 117.037 50">
  <defs>
    <filter id="Path_10000" x="1.606" y="11.914" width="30.222" height="38.086" filterUnits="userSpaceOnUse">
      <feOffset input="SourceAlpha"/>
      <feGaussianBlur result="blur"/>
      <feFlood flood-color="#040506" flood-opacity="0"/>
      <feComposite operator="in" in2="blur"/>
      <feComposite in="SourceGraphic"/>
    </filter>
  </defs>
  <g id="Group_3857" data-name="Group 3857" transform="translate(-476.912 -80.126)">
    <g id="Group_3854" data-name="Group 3854" transform="translate(476.912 80.126)">
      <g id="Group_3841" data-name="Group 3841" transform="translate(3.521 27.158)">
        <g id="Group_3839" data-name="Group 3839" transform="translate(0.632 0.523)">
          <g id="Group_3836" data-name="Group 3836">
            <path id="Path_9991" data-name="Path 9991" d="M296.108,129.449l-23.586-.117a.783.783,0,0,0-.783.842l.849,11.577a.98.98,0,0,0,.971.909l21.529.107a.98.98,0,0,0,.979-.894l1.01-11.356A.981.981,0,0,0,296.108,129.449Z" transform="translate(-271.737 -129.332)" fill="#ef7c69"/>
          </g>
          <g id="Group_3838" data-name="Group 3838" transform="translate(6.93 3.488)">
            <g id="Group_3837" data-name="Group 3837" transform="translate(3.239 0)">
              <ellipse id="Ellipse_306" data-name="Ellipse 306" cx="0.403" cy="0.857" rx="0.403" ry="0.857" transform="translate(0 0.069) rotate(-0.779)" fill="#fff"/>
              <ellipse id="Ellipse_307" data-name="Ellipse 307" cx="0.403" cy="0.857" rx="0.403" ry="0.857" transform="translate(4.178 0.011) rotate(-0.779)" fill="#fff"/>
            </g>
            <path id="Path_9992" data-name="Path 9992" d="M301.2,144.776a.562.562,0,0,0-.417-.192h-.034a.236.236,0,0,0-.193.145,3.908,3.908,0,0,1-.363.624,5.595,5.595,0,0,1-9.414-.132,3.962,3.962,0,0,1-.285-.5.184.184,0,0,0-.092-.093.534.534,0,0,0-.213-.044.552.552,0,0,0-.357.133.206.206,0,0,0-.05.233,5.438,5.438,0,0,0,.743,1.242,6.194,6.194,0,0,0,9.96.027,5.464,5.464,0,0,0,.749-1.232.2.2,0,0,0-.033-.212Z" transform="translate(-289.761 -142.263)" fill="#fff"/>
          </g>
        </g>
        <g id="Group_3840" data-name="Group 3840">
          <path id="Path_9993" data-name="Path 9993" d="M271.13,142.319l-1.053-14.361,26.61.132-1.276,14.35ZM271.189,129l.9,12.295,22.375.111,1.092-12.285Z" transform="translate(-270.077 -127.958)" fill="#fff"/>
        </g>
      </g>
      <g id="Group_3843" data-name="Group 3843" transform="translate(22.916 12.464)" opacity="0.15">
        <g id="Group_3842" data-name="Group 3842" opacity="0.3">
          <path id="Path_9994" data-name="Path 9994" d="M320.657,126.42c2.771.07,5.021-1.685,5.19-4.056L328.2,89.428l-5.344-.171-.63,34.065A4.061,4.061,0,0,1,320.657,126.42Z" transform="translate(-320.657 -89.257)" fill="#fff"/>
        </g>
      </g>
      <g id="Group_3853" data-name="Group 3853">
        <g id="Group_3845" data-name="Group 3845" transform="translate(26.079 3.961)" opacity="0.2">
          <g id="Group_3844" data-name="Group 3844" opacity="0.3">
            <path id="Path_9995" data-name="Path 9995" d="M329.9,73.038l5.345.008a.458.458,0,0,0,.066-.307l-.529-3.783a1.755,1.755,0,0,0-1.743-1.506l-4.081-.006h0a1.747,1.747,0,0,1,.881,1.279l.529,3.783A.47.47,0,0,1,329.9,73.038Z" transform="translate(-328.962 -67.445)" fill="#fff"/>
          </g>
        </g>
        <g id="Group_3847" data-name="Group 3847" transform="translate(22.782 0.536)" opacity="0.2">
          <g id="Group_3846" data-name="Group 3846" opacity="0.3">
            <path id="Path_9996" data-name="Path 9996" d="M326.125,61.305a4.308,4.308,0,0,0-1.713-1.816,7,7,0,0,0-3.2-.982l-.911-.056h0a6.5,6.5,0,0,1,1.227.582c.893.548,1.163,1.936,1.431,2.755h2.7Z" transform="translate(-320.303 -58.451)" fill="#fff"/>
          </g>
        </g>
        <g id="Group_3849" data-name="Group 3849" transform="translate(4.596 4.224)" opacity="0.2">
          <g id="Group_3848" data-name="Group 3848" opacity="0.3">
            <path id="Path_9997" data-name="Path 9997" d="M272.9,73.5a15.583,15.583,0,0,1,1.183-4.707c.423-.84.567-.681,1.343-.546l.6.1h0a2.456,2.456,0,0,0-.638.827c-.423.84-.285,3.2-.2,4.7l-1.692-.4h0Z" transform="translate(-272.899 -68.137)" fill="#fff"/>
          </g>
        </g>
        <g id="Group_3852" data-name="Group 3852">
          <g id="Group_3850" data-name="Group 3850" transform="translate(4.394)">
            <path id="Path_9998" data-name="Path 9998" d="M272.369,61.9l.119-.64a5.227,5.227,0,0,1,5.209-4.219l14.074.058a5.225,5.225,0,0,1,5.173,4.261l.113.641Zm19.4-3.71-14.073-.058a4.139,4.139,0,0,0-3.926,2.682l21.9.089a4.138,4.138,0,0,0-3.9-2.714Z" transform="translate(-272.369 -57.045)" fill="#fff"/>
          </g>
          <g id="Group_3851" data-name="Group 3851" transform="translate(0 3.761)">
            <path id="Path_9999" data-name="Path 9999" d="M261.663,73.726a1.034,1.034,0,0,1-.583-.332.986.986,0,0,1-.237-.8l.573-3.729a2.333,2.333,0,0,1,2.322-1.941l27.672.114a2.331,2.331,0,0,1,2.3,1.96l.541,3.734a.986.986,0,0,1-.244.8,1.043,1.043,0,0,1-.781.344h0l-31.375-.129A1.062,1.062,0,0,1,261.663,73.726Zm29.969-5.578a1.233,1.233,0,0,0-.226-.022l-27.672-.113a1.216,1.216,0,0,0-1.21,1.012l-.558,3.629,31.168.128-.527-3.634A1.209,1.209,0,0,0,291.632,68.148Z" transform="translate(-260.831 -66.921)" fill="#fff"/>
          </g>
        </g>
      </g>
      <g transform="matrix(1, 0, 0, 1, 0, 0)" filter="url(#Path_10000)">
        <path id="Path_10000-2" data-name="Path 10000" d="M265.976,87.817l-.925,0,0,.376a3.523,3.523,0,0,0,3.54,3.494l9.7.091a1.218,1.218,0,0,0,1.245-1.186l.013-1.1a.319.319,0,0,1,.334-.3H293.74l-2.989,32.871a3.1,3.1,0,0,1-3.155,2.728H272.84a3.1,3.1,0,0,1-3.155-2.728l-2.112-23.232a.744.744,0,0,1,.786-.767l9,.01a2.258,2.258,0,0,0,1.982,1.127l8.245.068a.092.092,0,0,0,.1-.086l0-.192a.091.091,0,0,0-.091-.088l-5.562-.28a.182.182,0,1,1,0-.364l5.566-.189a.092.092,0,0,0,.093-.086l0-.21a.091.091,0,0,0-.091-.088l-5.562-.28a.182.182,0,1,1,0-.364l5.566-.189a.092.092,0,0,0,.093-.086l0-.21a.092.092,0,0,0-.091-.088l-5.562-.28a.182.182,0,1,1,0-.364l5.566-.189a.092.092,0,0,0,.093-.086l0-.192a.091.091,0,0,0-.1-.088l-8.26-.068a2.172,2.172,0,0,0-2.188,1.593l-11.133.108a.1.1,0,0,0-.1.1l.081.767,2.4,25.21a3.42,3.42,0,0,0,3.531,2.919h16.516A3.42,3.42,0,0,0,292,122.979l3.272-34.393a.743.743,0,0,0-.785-.77Z" transform="translate(-263.44 -75.9)" fill="#fff"/>
      </g>
    </g>
  </g>
  <g id="Group_3858" data-name="Group 3858" transform="translate(-555.109 -114.956)">
    <g id="Group_3830" data-name="Group 3830" transform="translate(598.138 124.956)">
      <g id="Group_3829" data-name="Group 3829">
        <path id="Path_9971" data-name="Path 9971" d="M261.4,199.048l3.5,7.463-.353.73-3.182-6.779-.2,4.588q-.015.693-.015.569,0,1.344,1.038,1.483v.138l-.215-.023q-.861-.069-1.138-.07-.368,0-1.329.092V207.1q.976-.253,1.06-2l.223-5.25a2.215,2.215,0,0,0-1.283-.761v-.138q.622.069,1.329.077Zm3.8,5.357,2.46-5.357h.592l.361,8.1h-.3q-.323,0-.846.047l-.508.046V207.1q.922-.253.923-1.653,0,.023-.015-.515l-.2-4.481-2.46,5.389-3.183-6.8h.654Zm3.982,2.744-.369-8.1h.261q.561,0,1.576-.092v.138a1.211,1.211,0,0,0-.816.492,1.57,1.57,0,0,0-.3.969l.015.823.169,3.682a3.454,3.454,0,0,0,.315,1.484,1.074,1.074,0,0,0,.846.561v.138Q269.751,207.15,269.189,207.15Z" transform="translate(-259.512 -198.902)" fill="#fff"/>
        <path id="Path_9972" data-name="Path 9972" d="M279.592,199.048h.253v8.1h-.507q-.269,0-1.138.092V207.1a1.1,1.1,0,0,0,.63-.392,1.625,1.625,0,0,0,.3-.669,10.421,10.421,0,0,0,.085-1.691v-3.22a2.773,2.773,0,0,0-.3-1.53,1.2,1.2,0,0,0-.715-.507v-.138Q278.67,198.986,279.592,199.048Zm3.882,8.1H280.4v-8.1h2.237q.63,0,2.383-.092c-.011.154-.015.269-.015.346q0,.154.038.715.023.377.023.407v.192h-.13a1.659,1.659,0,0,0-.631-.853,3.233,3.233,0,0,0-1.33-.184h-1.222a3.536,3.536,0,0,0-.538.038,3.55,3.55,0,0,0-.161,1.245l-.016.522v1.253H282.7a3.126,3.126,0,0,0,1.245-.161,1.223,1.223,0,0,0,.492-.769h.169q-.062.692-.062,1.2,0,.322.047.846c.01.1.023.3.038.607h-.169a1.269,1.269,0,0,0-.407-.929,1.843,1.843,0,0,0-1.084-.254h-1.93v1.676a11.769,11.769,0,0,0,.108,1.7,4.823,4.823,0,0,0,.692.046H283a3.694,3.694,0,0,0,1.438-.215,2.492,2.492,0,0,0,1-.991h.154a7.551,7.551,0,0,1-.253.815,8.86,8.86,0,0,0-.3,1.037A15.212,15.212,0,0,0,283.474,207.15Z" transform="translate(-265.768 -198.902)" fill="#fff"/>
        <path id="Path_9973" data-name="Path 9973" d="M292.584,199.048v8.1q-.546,0-1.714.092V207.1a1.229,1.229,0,0,0,.838-.692,5.906,5.906,0,0,0,.238-2.106v-3.174a3.173,3.173,0,0,0-.238-1.422,1.315,1.315,0,0,0-.838-.615v-.138Q291.869,199.032,292.584,199.048Zm1.015,8.1h-.469v-8.1q1.061-.024,1.484-.054.638-.039.876-.039a3.531,3.531,0,0,1,1.968.53,3.4,3.4,0,0,1,1.215,1.406,5.128,5.128,0,0,1,.4,2.168,4.524,4.524,0,0,1-.961,3.09,3.327,3.327,0,0,1-2.621,1.092q-.768,0-1.737-.085A.938.938,0,0,0,293.6,207.15Zm.292-7.387a12.184,12.184,0,0,0-.123,2.422v1.875a9.738,9.738,0,0,0,.223,2.46,4.543,4.543,0,0,0,1.353.185,2.868,2.868,0,0,0,2.237-.9,3.85,3.85,0,0,0,.822-2.668,3.993,3.993,0,0,0-.814-2.674,2.983,2.983,0,0,0-2.4-.954A2.784,2.784,0,0,0,293.891,199.763Zm4.474,6.787a4.007,4.007,0,0,0,1.276-3.382,4.384,4.384,0,0,0-1.046-3.32,3.89,3.89,0,0,1,1.323,1.406,3.947,3.947,0,0,1,.446,1.891A3.757,3.757,0,0,1,298.365,206.55Z" transform="translate(-270.008 -198.902)" fill="#fff"/>
        <path id="Path_9974" data-name="Path 9974" d="M308.508,200.105a4.772,4.772,0,0,0-.876,3.005,4.547,4.547,0,0,0,1.084,3.306,2.639,2.639,0,0,1-1.307-1.253,4.205,4.205,0,0,1-.484-2.029,3.918,3.918,0,0,1,.253-1.43,3.014,3.014,0,0,1,.569-1.007A2.767,2.767,0,0,1,308.508,200.105Zm6.4,5.35h.154l-.246,1.3a8.268,8.268,0,0,1-1.376.407,6.575,6.575,0,0,1-1.276.131,3.875,3.875,0,0,1-2.913-1.084,4.293,4.293,0,0,1-1.053-3.128,3.82,3.82,0,0,1,4.1-4.2,8.063,8.063,0,0,1,2.706.484q-.062.968-.062,1.145,0,.162.008.315V201a7.292,7.292,0,0,1-.039.761h-.13a2.528,2.528,0,0,0-2.66-2.322,3.026,3.026,0,0,0-2.352.961,4.608,4.608,0,0,0-.07,5.312,2.925,2.925,0,0,0,2.414.984,3.715,3.715,0,0,0,1.63-.354A3.129,3.129,0,0,0,314.9,205.455Z" transform="translate(-275.382 -198.875)" fill="#fff"/>
        <path id="Path_9975" data-name="Path 9975" d="M320.519,198.956l1.714.092v5.334a5.876,5.876,0,0,0,.161,1.668,2.157,2.157,0,0,0,.7.946,1.961,1.961,0,0,1-.869-.361,1.348,1.348,0,0,1-.514-.669,4.451,4.451,0,0,1-.124-1.253v-3.674a2.911,2.911,0,0,0-.253-1.384,1.152,1.152,0,0,0-.815-.561Zm8.055.092v8.1h-.723a2.833,2.833,0,0,0,.085-.745,4.8,4.8,0,0,1-2.674.838,2.786,2.786,0,0,1-1.438-.361,1.823,1.823,0,0,1-.83-.93,4.632,4.632,0,0,1-.224-1.622v-5.28c.538,0,1.133-.031,1.783-.092v.138a1.209,1.209,0,0,0-.684.33,1.254,1.254,0,0,0-.353.615,4.723,4.723,0,0,0-.092,1.1l-.008.161v2.937a4.909,4.909,0,0,0,.146,1.414,1.345,1.345,0,0,0,.63.753,2.372,2.372,0,0,0,1.238.3,4.61,4.61,0,0,0,2.505-.869v-4.489a6.754,6.754,0,0,0-.085-1.268,1.255,1.255,0,0,0-.331-.638,1.389,1.389,0,0,0-.653-.346v-.138c.031,0,.1,0,.216.007s.233.015.361.031Q328.074,199.033,328.574,199.048Zm.993,8.1h-.439v-8.1q.577-.016.877-.039l.868-.053v.138a1.211,1.211,0,0,0-.676.361,1.4,1.4,0,0,0-.353.707,9.186,9.186,0,0,0-.078,1.5v3.382q0,1.908,1.107,2.06v.138Q329.859,207.15,329.567,207.15Z" transform="translate(-279.933 -198.902)" fill="#fff"/>
        <path id="Path_9976" data-name="Path 9976" d="M339.384,199.048v8.1h-.253c-.329,0-.816.031-1.462.092V207.1a1.136,1.136,0,0,0,.738-.454,2.883,2.883,0,0,0,.338-1.7v-3.743a3.458,3.458,0,0,0-.238-1.515,1.237,1.237,0,0,0-.838-.6v-.138Q338.693,199.032,339.384,199.048Zm1.122,8.1h-.561v-8.1q.192,0,.3-.008.438-.016.846-.054a5.207,5.207,0,0,1,.593-.031,2.584,2.584,0,0,1,2.014.715,2.62,2.62,0,0,1,.638,1.8,2.282,2.282,0,0,1-.7,1.752,2.526,2.526,0,0,1-1.822.669,3.785,3.785,0,0,1-1.245-.216v1.368a2.989,2.989,0,0,0,.284,1.484,1.153,1.153,0,0,0,.915.576v.138q-.323-.046-.8-.069Zm.062-5.726V203.1a2.908,2.908,0,0,0,1.138.223,1.867,1.867,0,0,0,1.46-.538,1.966,1.966,0,0,0,.484-1.353,2.038,2.038,0,0,0-.484-1.391,1.908,1.908,0,0,0-1.514-.553,1.513,1.513,0,0,0-.83.177Q340.569,199.847,340.569,201.423Zm3.49,2.145a2.854,2.854,0,0,0,.838-2.06,3.167,3.167,0,0,0-.838-2.191,2.17,2.17,0,0,1,1.545,2.121A2.219,2.219,0,0,1,344.059,203.568Z" transform="translate(-285.674 -198.902)" fill="#fff"/>
      </g>
    </g>
    <g id="Group_3833" data-name="Group 3833" transform="translate(598.109 140.11)">
      <g id="Group_3832" data-name="Group 3832" transform="translate(0)">
        <path id="Path_9977" data-name="Path 9977" d="M251.318,232.963a2.279,2.279,0,0,0,.283.031,1.681,1.681,0,0,0,1.243-.74,15.55,15.55,0,0,0,1.181-2.062.111.111,0,0,1,.11-.079c.094-.011.142.026.142.11a.732.732,0,0,1-.071.18c-.047.1-.092.2-.134.3s-.11.243-.2.432-.176.341-.243.456-.155.257-.26.425a1.85,1.85,0,0,1-.315.394l-.331.346a1.485,1.485,0,0,1-.629.378,1.91,1.91,0,0,1-1.134.032,1.658,1.658,0,0,1-.645.157,1.216,1.216,0,0,1-1.354-.882,2.2,2.2,0,0,1-.048-.5.931.931,0,0,1,.2-.559.592.592,0,0,1,.417-.283q.8-1.527,1.37-2.756.63-1.337,1.464-1.338a.987.987,0,0,1,.433.1c.142.069.194.144.157.228s-.112.1-.228.047a.742.742,0,0,0-.3-.079.491.491,0,0,0-.221.047,1.075,1.075,0,0,0-.536,1.086,1.785,1.785,0,0,0,.126.724q.126.283.283.614a3.518,3.518,0,0,1,.362,1.338,1.845,1.845,0,0,1-.331,1.024A2.938,2.938,0,0,1,251.318,232.963Zm-1.716-.536a1.528,1.528,0,0,0,.015.2.55.55,0,0,0,.583.425.7.7,0,0,0,.315-.063,1.383,1.383,0,0,1-.629-1.181A.859.859,0,0,0,249.6,232.427Zm1.18.425a2.05,2.05,0,0,0,.693-1.732,11.1,11.1,0,0,0-.11-1.338,10.915,10.915,0,0,1-.11-1.15,3.4,3.4,0,0,1,.016-.409q-1.2,2.393-1.48,2.913c.22,0,.331.157.331.472A1.24,1.24,0,0,0,250.782,232.852Z" transform="translate(-248.909 -223.391)" fill="#fff"/>
        <path id="Path_9978" data-name="Path 9978" d="M260.74,230.6a6.628,6.628,0,0,0-.622,1.5,4.2,4.2,0,0,0-.1.8c0,.2.079.307.236.307q.3,0,.74-.551a11.235,11.235,0,0,0,1.275-2.094c.042-.094.09-.146.142-.158.084-.031.126,0,.126.1a.5.5,0,0,1-.047.189q-1.449,2.927-2.44,2.928a.85.85,0,0,1-.74-.441,1.215,1.215,0,0,1-.142-.629,3.716,3.716,0,0,1,.157-.961q-1.259,2.032-2.172,2.031a.727.727,0,0,1-.456-.158,1.285,1.285,0,0,1-.472-1.133,4.9,4.9,0,0,1,1.338-3.133,3.476,3.476,0,0,1,1.858-1.15,2.219,2.219,0,0,1,.566-.078,1.671,1.671,0,0,1,1.228.5.308.308,0,0,1,.094.331.216.216,0,0,1-.267.126.726.726,0,0,0-.756-.567q-.677,0-1.669,1.07a8.641,8.641,0,0,0-1.054,1.48,3.5,3.5,0,0,0-.614,1.637q0,.614.394.614.944,0,2.471-2.9a3.634,3.634,0,0,1,.5-.794.69.69,0,0,1,.52-.213,2.684,2.684,0,0,1,.323.047.98.98,0,0,0,.386.015A6.05,6.05,0,0,0,260.74,230.6Z" transform="translate(-251.357 -223.708)" fill="#fff"/>
        <path id="Path_9979" data-name="Path 9979" d="M263.4,237.04q-1.48,0-1.48-1.212,0-1.007,1.37-1.81a15.912,15.912,0,0,1,2.976-1.275q.834-.268,1.211-.425a8.013,8.013,0,0,0,.41-2.613,2.149,2.149,0,0,0-.031-.425,9.756,9.756,0,0,1-1.212,1.841q-.913,1.134-1.811.882a1.329,1.329,0,0,1-.818-1.354,4.835,4.835,0,0,1,1.354-2.974,3.209,3.209,0,0,1,1.732-1.118,1.907,1.907,0,0,1,.535-.078,2.4,2.4,0,0,1,1.386.472c.168.136.251.252.251.346a.469.469,0,0,1-.094.275c-.063.09-.128.1-.2.032a.513.513,0,0,1-.134-.2q-.206-.583-.662-.583a2.792,2.792,0,0,0-1.873,1.165,8.325,8.325,0,0,0-1.007,1.417,3.4,3.4,0,0,0-.52,1.457.711.711,0,0,0,.315.685.561.561,0,0,0,.221.047,1.522,1.522,0,0,0,.905-.5,5.722,5.722,0,0,0,1.007-1.259,5.625,5.625,0,0,0,.59-1.189.919.919,0,0,1,.307-.535.884.884,0,0,1,.4-.126.563.563,0,0,0,.3-.078,9.618,9.618,0,0,1,.126,1.661,8.307,8.307,0,0,1-.331,2.164,4.79,4.79,0,0,0,1.031-.928,6.416,6.416,0,0,0,.488-.74q.181-.33.323-.653c.094-.215.157-.354.189-.417a.218.218,0,0,1,.158-.118c.072-.015.11.019.11.1a.5.5,0,0,1-.047.189,14.6,14.6,0,0,1-1.157,2.07,3.232,3.232,0,0,1-1.267,1.015,9.307,9.307,0,0,1-1.094,2.126,7.678,7.678,0,0,1-1.8,1.858A3.633,3.633,0,0,1,263.4,237.04Zm-1.149-.913q0,.6.771.6a2.5,2.5,0,0,0,1.031-.267,5.422,5.422,0,0,0,.953-.551,8.8,8.8,0,0,0,1.416-1.543,7.966,7.966,0,0,0,.9-1.589l-.551.188a17.005,17.005,0,0,0-3.463,1.511,2.292,2.292,0,0,0-.976,1.243A1.324,1.324,0,0,0,262.255,236.127Zm8.17-12.531q0,.471-.85,1.023a2.325,2.325,0,0,1-2.235.142.953.953,0,0,1-.536-.929c0-.261.089-.394.267-.394.042,0,.079.035.11.1s.071.154.118.259a.813.813,0,0,0,.165.251,1.339,1.339,0,0,0,.96.394,2.195,2.195,0,0,0,.843-.126,1.5,1.5,0,0,0,.432-.26,3.749,3.749,0,0,0,.378-.448c.1-.136.21-.168.315-.094A.1.1,0,0,1,270.426,223.6Z" transform="translate(-253.265 -222.195)" fill="#fff"/>
        <path id="Path_9980" data-name="Path 9980" d="M276.072,228.834q-.126.37-.213.708a2.747,2.747,0,0,0-.086.677,1.3,1.3,0,0,0,.157.631.531.531,0,0,0,.5.291,1.446,1.446,0,0,0,1.1-.763,16.3,16.3,0,0,0,1.134-1.945q.126-.221.236-.174a.125.125,0,0,1,.031.166c-.031.069-.1.215-.2.44s-.173.383-.22.472-.132.247-.252.472a3.325,3.325,0,0,1-.315.5q-.134.165-.363.424a2.071,2.071,0,0,1-1.472.732,1.188,1.188,0,0,1-.756-.212.833.833,0,0,1-.323-.457,2,2,0,0,1-.055-.432q0-.19.016-.489a4.652,4.652,0,0,1,.2-.975c.1-.315.154-.494.165-.536a22.079,22.079,0,0,1,1.031-2.849,21.608,21.608,0,0,1,1.134-2.322,6.682,6.682,0,0,1,.732-1.063,1.5,1.5,0,0,1,1.055-.567q.362,0,.488.52a1.441,1.441,0,0,1,.016.236,3.4,3.4,0,0,1-.378,1.354,14.225,14.225,0,0,1-3.227,4.723C276.2,228.443,276.156,228.588,276.072,228.834Zm1.857-3a15.3,15.3,0,0,0,1.158-2.117,3.9,3.9,0,0,0,.37-1.189c0-.21-.037-.315-.11-.315q-.158,0-.6.622a15.847,15.847,0,0,0-1.189,2.235q-.747,1.614-1.219,2.825A12.477,12.477,0,0,0,277.93,225.835Z" transform="translate(-257.638 -221.569)" fill="#fff"/>
        <path id="Path_9981" data-name="Path 9981" d="M282.246,232.95a3.1,3.1,0,0,1-.574.5,1.37,1.37,0,0,1-.788.236.85.85,0,0,1-.708-.346,1.285,1.285,0,0,1-.268-.811,1.8,1.8,0,0,1,.236-.889l1.37-2.613a3.566,3.566,0,0,1,.393-.669.769.769,0,0,1,.457-.086h.8a1.876,1.876,0,0,1-.157.125,1.31,1.31,0,0,0-.425.441,21.07,21.07,0,0,0-1.637,3.054,2.548,2.548,0,0,0-.283,1.008q0,.44.5.44l.614-.3a9.029,9.029,0,0,0,1.48-2.378c.084-.158.158-.2.221-.142a.115.115,0,0,1,.047.1,1.314,1.314,0,0,1-.142.363q-.142.291-.236.48t-.386.709A4.708,4.708,0,0,1,282.246,232.95Z" transform="translate(-259.285 -223.811)" fill="#fff"/>
        <path id="Path_9982" data-name="Path 9982" d="M289.023,227.261a.376.376,0,0,0-.425-.426,2.385,2.385,0,0,0-1.456.717,8.307,8.307,0,0,0-1.378,1.5,4.659,4.659,0,0,0-.386,1.149,5.454,5.454,0,0,0-.15.961.455.455,0,0,0,.094.346h-.991q-.236,0-.118-.417a8.08,8.08,0,0,1,.323-.9q.2-.488.512-1.126t.449-.969a16.782,16.782,0,0,1-1.669,2.8c-.1.1-.157.063-.157-.094a.258.258,0,0,1,.031-.11,36.177,36.177,0,0,0,2.2-3.936q1.646-3.211,2.306-4.2.535-.77,1.038-.771h.1c.01,0,.1.016.275.047a1,1,0,0,0,.386.016,8.721,8.721,0,0,0-1.606,2.023,30.245,30.245,0,0,0-1.621,2.771,14.94,14.94,0,0,0-.8,1.8,6.8,6.8,0,0,1,2.566-2.2,2.956,2.956,0,0,1,.85-.173q.693,0,.693.583a1.372,1.372,0,0,1-.079.424,2.338,2.338,0,0,1-.905,1.078,3.09,3.09,0,0,1-1.5.559,2.083,2.083,0,0,0-.189.811,2.629,2.629,0,0,0,.078.669,1.171,1.171,0,0,0,.709.928.765.765,0,0,0,.221.032,1.681,1.681,0,0,0,1.039-.551,10.167,10.167,0,0,0,1.275-2.157q.11-.2.173-.134a.209.209,0,0,1,.063.134,3.956,3.956,0,0,1-.236.614,8.413,8.413,0,0,1-.661,1.212,2.474,2.474,0,0,1-1.983,1.354,1.351,1.351,0,0,1-1.024-.378,2.014,2.014,0,0,1-.283-2.3c.157-.3.341-.467.551-.489h.094a1.7,1.7,0,0,0,1.078-.424Q289.023,227.607,289.023,227.261Z" transform="translate(-260.545 -221.64)" fill="#fff"/>
        <path id="Path_9983" data-name="Path 9983" d="M305.3,228.021l-.079.284a19.276,19.276,0,0,1-1.479,3.652q-.992,1.669-2.078,1.669-.882,0-.882-.85a6.862,6.862,0,0,1,.472-2c-.105.168-.186.223-.244.165a.184.184,0,0,1-.039-.212l.283-.536a2.787,2.787,0,0,0,.3-1.228q0-.614-.251-.724a9.39,9.39,0,0,1,1.1-.15.194.194,0,0,1,.2.134.965.965,0,0,1,.039.284,6.566,6.566,0,0,1-.5,2.267,6.389,6.389,0,0,0-.5,1.756c0,.3.047.472.142.519a.628.628,0,0,0,.283.071q.409,0,.929-.661a8.194,8.194,0,0,0,1.04-1.952,2.127,2.127,0,0,1-.126-1.575,1.577,1.577,0,0,1,.9-1.118.682.682,0,0,1,.237-.047A.222.222,0,0,1,305.3,228.021Z" transform="translate(-266.271 -223.645)" fill="#fff"/>
        <path id="Path_9984" data-name="Path 9984" d="M308.436,231.163a3.123,3.123,0,0,0-.221,1.2,1.131,1.131,0,0,0,.2.7.658.658,0,0,0,.559.26q1.433,0,2.6-2.692c.074-.168.162-.241.268-.221a.076.076,0,0,1,.063.079,6.575,6.575,0,0,1-.354.826,6.675,6.675,0,0,1-.716,1.236,2.384,2.384,0,0,1-1.983,1.1,1.518,1.518,0,0,1-1.071-.409,1.452,1.452,0,0,1-.44-1.118,3.847,3.847,0,0,1,.338-1.5,5.761,5.761,0,0,1,.921-1.48,3.529,3.529,0,0,1,1.338-1,1.748,1.748,0,0,1,.693-.158,1.082,1.082,0,0,1,.614.19.627.627,0,0,1,.268.488,2.369,2.369,0,0,1-1.134,1.81,3.377,3.377,0,0,1-.976.48A3.293,3.293,0,0,1,308.436,231.163Zm2.645-2.519q0-.315-.252-.315-.441,0-1.338,1.086a8.1,8.1,0,0,0-.945,1.48,2.471,2.471,0,0,0,.779-.189,2.973,2.973,0,0,0,.889-.5A2.08,2.08,0,0,0,311.081,228.644Z" transform="translate(-268.466 -223.716)" fill="#fff"/>
        <path id="Path_9985" data-name="Path 9985" d="M324.257,227.261a.376.376,0,0,0-.425-.426,2.385,2.385,0,0,0-1.456.717,8.308,8.308,0,0,0-1.378,1.5,4.606,4.606,0,0,0-.385,1.149,5.412,5.412,0,0,0-.15.961.455.455,0,0,0,.094.346h-.991q-.237,0-.118-.417a8.08,8.08,0,0,1,.323-.9c.136-.325.307-.7.512-1.126s.355-.748.449-.969a16.785,16.785,0,0,1-1.669,2.8c-.1.1-.158.063-.158-.094a.257.257,0,0,1,.031-.11,36.007,36.007,0,0,0,2.2-3.936q1.645-3.211,2.307-4.2.535-.77,1.038-.771h.1c.011,0,.1.016.275.047a1,1,0,0,0,.386.016,8.72,8.72,0,0,0-1.606,2.023,30.4,30.4,0,0,0-1.621,2.771,14.936,14.936,0,0,0-.8,1.8,6.8,6.8,0,0,1,2.566-2.2,2.956,2.956,0,0,1,.85-.173q.694,0,.693.583a1.37,1.37,0,0,1-.078.424,2.346,2.346,0,0,1-.905,1.078,3.09,3.09,0,0,1-1.5.559,2.083,2.083,0,0,0-.189.811,2.629,2.629,0,0,0,.079.669,1.171,1.171,0,0,0,.708.928.771.771,0,0,0,.221.032,1.682,1.682,0,0,0,1.039-.551,10.165,10.165,0,0,0,1.275-2.157q.11-.2.173-.134a.209.209,0,0,1,.063.134,4.04,4.04,0,0,1-.236.614,8.351,8.351,0,0,1-.661,1.212,2.474,2.474,0,0,1-1.984,1.354,1.35,1.35,0,0,1-1.023-.378,2.011,2.011,0,0,1-.283-2.3c.157-.3.34-.467.551-.489h.094a1.706,1.706,0,0,0,1.078-.424Q324.257,227.607,324.257,227.261Z" transform="translate(-272.338 -221.64)" fill="#fff"/>
        <path id="Path_9986" data-name="Path 9986" d="M333.622,230.6a6.631,6.631,0,0,0-.622,1.5,4.186,4.186,0,0,0-.1.8q0,.307.235.307.3,0,.74-.551a11.234,11.234,0,0,0,1.275-2.094c.042-.094.089-.146.142-.158.084-.031.126,0,.126.1a.511.511,0,0,1-.047.189q-1.449,2.927-2.44,2.928a.853.853,0,0,1-.74-.441,1.222,1.222,0,0,1-.142-.629,3.7,3.7,0,0,1,.158-.961q-1.26,2.032-2.173,2.031a.727.727,0,0,1-.456-.158,1.284,1.284,0,0,1-.472-1.133,4.905,4.905,0,0,1,1.338-3.133,3.476,3.476,0,0,1,1.857-1.15,2.223,2.223,0,0,1,.567-.078,1.671,1.671,0,0,1,1.228.5.308.308,0,0,1,.094.331.216.216,0,0,1-.267.126.726.726,0,0,0-.755-.567q-.678,0-1.669,1.07a8.643,8.643,0,0,0-1.054,1.48,3.5,3.5,0,0,0-.614,1.637q0,.614.393.614.946,0,2.471-2.9a3.657,3.657,0,0,1,.5-.794.69.69,0,0,1,.52-.213,2.683,2.683,0,0,1,.323.047.98.98,0,0,0,.386.015A6.049,6.049,0,0,0,333.622,230.6Z" transform="translate(-275.753 -223.708)" fill="#fff"/>
        <path id="Path_9987" data-name="Path 9987" d="M339.205,228.834c-.085.247-.154.483-.213.708a2.746,2.746,0,0,0-.086.677,1.3,1.3,0,0,0,.157.631.53.53,0,0,0,.5.291,1.447,1.447,0,0,0,1.1-.763,16.306,16.306,0,0,0,1.133-1.945q.126-.221.237-.174a.125.125,0,0,1,.031.166c-.031.069-.1.215-.2.44s-.174.383-.22.472-.131.247-.252.472a3.434,3.434,0,0,1-.315.5q-.135.165-.363.424a2.071,2.071,0,0,1-1.472.732,1.184,1.184,0,0,1-.754-.212.833.833,0,0,1-.324-.457,2.04,2.04,0,0,1-.055-.432q0-.19.016-.489a4.652,4.652,0,0,1,.2-.975q.149-.473.166-.536a22.058,22.058,0,0,1,1.03-2.849,21.452,21.452,0,0,1,1.135-2.322,6.648,6.648,0,0,1,.731-1.063,1.5,1.5,0,0,1,1.055-.567q.361,0,.488.52a1.516,1.516,0,0,1,.016.236,3.422,3.422,0,0,1-.377,1.354,14.235,14.235,0,0,1-3.228,4.723C339.336,228.443,339.289,228.588,339.205,228.834Zm1.857-3a15.281,15.281,0,0,0,1.157-2.117,3.893,3.893,0,0,0,.371-1.189c0-.21-.037-.315-.11-.315q-.158,0-.6.622a15.776,15.776,0,0,0-1.189,2.235q-.748,1.614-1.22,2.825A12.442,12.442,0,0,0,341.063,225.835Z" transform="translate(-278.77 -221.569)" fill="#fff"/>
        <path id="Path_9988" data-name="Path 9988" d="M344.466,232.425a.971.971,0,0,0,.63-.3,10.1,10.1,0,0,0,1.48-2.378c.074-.158.147-.2.22-.142a.14.14,0,0,1,.031.1,1.236,1.236,0,0,1-.126.346c-.084.184-.16.35-.228.5s-.2.385-.394.716a5.089,5.089,0,0,1-.528.764,1.744,1.744,0,0,1-1.22.74.952.952,0,0,1-.826-.346,1.279,1.279,0,0,1-.252-.771,2.49,2.49,0,0,1,.2-.929l1.007-2.566a.811.811,0,0,0,.031-.251.761.761,0,0,0-.188-.41l.865-.016q.362,0,.424.134c.043.09.011.229-.094.418l-1.26,2.944a2.483,2.483,0,0,0-.267.991Q343.978,232.425,344.466,232.425Zm1.543-5.778a.73.73,0,0,1-.488.189.521.521,0,0,1-.424-.189.576.576,0,0,1-.126-.456.766.766,0,0,1,.267-.456.735.735,0,0,1,.488-.189.547.547,0,0,1,.432.189.519.519,0,0,1,.118.456A.765.765,0,0,1,346.009,226.647Z" transform="translate(-280.489 -222.9)" fill="#fff"/>
        <path id="Path_9989" data-name="Path 9989" d="M348.152,230.379A13.724,13.724,0,0,1,349.411,226h-.818a.1.1,0,0,1-.1-.086.253.253,0,0,1,.016-.173.127.127,0,0,1,.118-.087h.945q.568-1.243,1.055-2.078a3.669,3.669,0,0,1,.9-1.126,1.287,1.287,0,0,1,.591-.291.78.78,0,0,1,.259.031.713.713,0,0,1,.362.717,3.215,3.215,0,0,1-.362,1.315q-.362.771-.709,1.432h.756a.1.1,0,0,1,.1.087.249.249,0,0,1-.016.173.127.127,0,0,1-.118.086h-.913a11.449,11.449,0,0,1-2.094,2.6l-.363,1.605a1.792,1.792,0,0,0-.047.4.845.845,0,0,0,.11.4.367.367,0,0,0,.346.2,1.229,1.229,0,0,0,.6-.19,7.016,7.016,0,0,0,1.669-2.377.294.294,0,0,1,.149-.173c.057-.021.092-.007.1.039a.447.447,0,0,1-.048.229,14.4,14.4,0,0,1-.818,1.542q-.85,1.37-1.81,1.37a1.017,1.017,0,0,1-.8-.362A1.34,1.34,0,0,1,348.152,230.379Zm2.96-4.377h-.74q-.189.441-.85,2.094A12.018,12.018,0,0,0,351.112,226Zm.2-.347a6.756,6.756,0,0,0,1.039-2.582c0-.21-.037-.314-.11-.314-.116,0-.291.167-.528.5a17.679,17.679,0,0,0-1.189,2.393Z" transform="translate(-282.128 -221.767)" fill="#fff"/>
        <path id="Path_9990" data-name="Path 9990" d="M354.436,231.163a3.123,3.123,0,0,0-.22,1.2,1.131,1.131,0,0,0,.2.7.658.658,0,0,0,.559.26q1.433,0,2.6-2.692c.074-.168.162-.241.268-.221a.076.076,0,0,1,.063.079,6.533,6.533,0,0,1-.355.826,6.674,6.674,0,0,1-.716,1.236,2.385,2.385,0,0,1-1.984,1.1,1.518,1.518,0,0,1-1.071-.409,1.452,1.452,0,0,1-.44-1.118,3.849,3.849,0,0,1,.339-1.5,5.758,5.758,0,0,1,.921-1.48,3.534,3.534,0,0,1,1.338-1,1.751,1.751,0,0,1,.693-.158,1.084,1.084,0,0,1,.615.19.629.629,0,0,1,.268.488,2.37,2.37,0,0,1-1.134,1.81,3.368,3.368,0,0,1-.976.48A3.289,3.289,0,0,1,354.436,231.163Zm2.646-2.519c0-.21-.084-.315-.252-.315q-.441,0-1.339,1.086a8.1,8.1,0,0,0-.945,1.48,2.478,2.478,0,0,0,.78-.189,2.969,2.969,0,0,0,.889-.5A2.079,2.079,0,0,0,357.081,228.644Z" transform="translate(-283.863 -223.716)" fill="#fff"/>
      </g>
    </g>
  </g>
</svg>
